<svg width="151" height="25" viewBox="0 0 151 25" fill="none" xmlns="http://www.w3.org/2000/svg">
<mask id="mask0_911_910" style="mask-type:luminance" maskUnits="userSpaceOnUse" x="0" y="0" width="151" height="25">
<path d="M0 0H150.063V25H0V0Z" fill="white"/>
</mask>
<g mask="url(#mask0_911_910)">
<path d="M98.3133 11.4533C98.3133 10.2465 97.6162 9.11602 95.9454 9.11602C93.0489 9.11602 91 13.1386 91 16.2181C91 18.2657 91.8232 20.2268 94.1925 20.2268C95.1685 20.247 96.1308 19.9674 96.9608 19.4221L96.6849 18.6661C95.9825 19.1309 95.1702 19.3783 94.3407 19.38C93.2621 19.38 92.4799 18.7747 92.1219 17.5688C91.9395 16.6897 91.9098 15.7865 92.0375 14.8977C95.3509 14.9241 98.3108 14.1699 98.3108 11.4507L98.3133 11.4533ZM95.7775 9.96086C96.7321 9.96086 97.3624 10.4958 97.3624 11.4754V11.4975C97.3624 13.6138 94.8266 14.0798 92.1837 14.0582C92.814 11.7425 94.2137 9.96086 95.7775 9.96086ZM106.684 9.33702H105.607L103.507 12.1211C103.02 12.7447 102.788 13.1269 102.361 13.7685H102.317C102.085 13.2112 101.896 12.6539 101.663 12.0327L100.605 9.3375H99.6334L101.734 14.5669L97.5332 20.0216H98.6118L100.904 16.9926C101.298 16.4574 101.665 15.9001 102.003 15.3231H102.044C102.297 16.0793 102.443 16.5038 102.739 17.216L103.818 20.0216H104.81L102.664 14.5713L106.68 9.33702H106.684ZM112.2 9.11602C110.848 9.11602 109.579 10.0289 108.662 11.4975H108.621L108.938 9.33726H108.071C107.946 10.3174 107.754 11.6097 107.499 13.0125L105.481 24.3913H106.391L107.196 19.7817H107.239C107.868 20.1156 108.566 20.2789 109.268 20.2501C112.504 20.2501 114.851 16.1977 114.851 12.5922C114.848 10.8338 114.13 9.11866 112.206 9.11866L112.2 9.11602ZM109.347 19.4019C108.523 19.4019 107.847 19.179 107.383 18.799L108.036 15.118C108.609 11.8895 110.487 9.95296 111.925 9.95296C113.426 9.95296 113.892 11.3791 113.892 12.6481C113.892 15.3954 112.032 19.4021 109.348 19.4021L109.347 19.4019ZM120.783 9.11602C117.886 9.11602 115.837 13.1386 115.837 16.2181C115.837 18.2657 116.662 20.2268 119.03 20.2268C120.007 20.247 120.969 19.9674 121.798 19.4221L121.523 18.6661C120.82 19.1309 120.007 19.3776 119.177 19.3781C118.098 19.3781 117.317 18.7752 116.958 17.5693C116.776 16.695 116.747 15.7918 116.872 14.9078C120.191 14.9294 123.15 14.1751 123.15 11.456C123.148 10.2549 122.452 9.11866 120.783 9.11866V9.11602ZM122.198 11.4975C122.198 13.6138 119.662 14.0798 117.02 14.0582C117.653 11.7425 119.049 9.96086 120.613 9.96086C121.568 9.96086 122.198 10.4958 122.198 11.4754V11.4975ZM126.024 11.6767H125.982C126.108 10.7411 126.194 10.0289 126.257 9.33942H125.434C125.349 10.2746 125.201 11.4773 124.948 12.835L123.66 20.0276H124.57L125.541 14.597C125.963 12.2597 127.452 10.1439 128.777 10.1439C128.891 10.1367 129.003 10.1439 129.114 10.1655L129.306 9.1422C129.201 9.1422 129.053 9.11818 128.925 9.11818C127.657 9.11338 126.645 10.2472 126.031 11.6741L126.024 11.6767ZM132.111 19.3803C131.477 19.3803 131.202 19.0019 131.202 18.3743C131.217 17.7525 131.288 17.1336 131.414 16.5259L132.529 10.1619H134.918L135.089 9.33726H132.704L133.148 7L132.136 7.42277L131.798 9.33726H130.318L130.172 10.1636H131.632L130.487 16.5316C130.341 17.173 130.264 17.8312 130.254 18.4917C130.254 19.3829 130.722 20.2285 131.926 20.2285C132.263 20.2285 132.596 20.1756 132.92 20.0747L132.858 19.2964C132.618 19.3685 132.37 19.3997 132.12 19.3853L132.111 19.3803ZM138.79 9.96086C139.298 9.97346 139.794 10.1267 140.228 10.4053L140.566 9.58056C140.27 9.33509 139.594 9.11386 138.895 9.11386C137.098 9.11386 135.81 10.4735 135.81 12.143C135.81 13.1494 136.359 14.1031 137.373 14.7925C138.328 15.4387 138.749 16.0848 138.749 17.1514C138.749 18.3764 137.839 19.3781 136.509 19.3781C135.872 19.3757 135.252 19.1643 134.733 18.7752L134.374 19.5799C134.712 19.8706 135.52 20.2261 136.425 20.2261C138.178 20.2261 139.67 19.0466 139.67 16.8847C139.67 15.7942 139.077 14.8165 138.105 14.1247C137.28 13.5218 136.73 12.9669 136.73 11.9652C136.737 10.877 137.563 9.96416 138.789 9.96416L138.79 9.96086Z" fill="white"/>
<path d="M18.8716 4.69372C18.8634 4.64125 18.8379 4.59304 18.7991 4.55679C18.7603 4.52051 18.7105 4.49832 18.6577 4.49372C18.5691 4.48673 16.8336 4.46017 16.8336 4.46017C16.8336 4.46017 15.3823 3.05193 15.2393 2.91142C15.0963 2.77092 14.8159 2.81206 14.707 2.84372L13.9779 3.06966C13.888 2.77378 13.7713 2.48672 13.6292 2.21206C13.1121 1.22662 12.3558 0.704463 11.4418 0.703199H11.4387C11.3754 0.703199 11.3121 0.709529 11.2488 0.715225C11.2222 0.682946 11.195 0.651932 11.1659 0.619656C10.7684 0.193707 10.257 -0.0132549 9.64692 0.00446663C8.464 0.0348464 7.28868 0.886111 6.33488 2.4051C5.66272 3.46838 5.15638 4.81017 5.00891 5.84372L2.68361 6.56395C1.99943 6.77852 1.97792 6.80003 1.88804 7.44497C1.82032 7.93295 0.0298157 21.7804 0.0298157 21.7804L15.0374 24.3753L21.5418 22.7589C21.5418 22.7589 18.8906 4.81713 18.8716 4.69372ZM13.226 3.3013L12.0615 3.66142C12.0526 3.06395 11.9817 2.23168 11.7026 1.51269C12.5988 1.68105 13.04 2.69434 13.226 3.2994V3.3013ZM11.2767 3.90446L8.77096 4.67852C9.01337 3.7513 9.47224 2.82788 10.0368 2.22345C10.2736 1.95938 10.5634 1.74825 10.8874 1.60383C11.2134 2.28484 11.2843 3.25068 11.2767 3.90255V3.90446ZM9.6678 0.786742C9.91806 0.773617 10.1662 0.838648 10.3779 0.972818C10.0335 1.15696 9.72312 1.39863 9.46022 1.68738C8.71022 2.49181 8.13553 3.74116 7.90641 4.94625L5.85261 5.58358C6.25513 3.68611 7.84502 0.839276 9.6678 0.786742Z" fill="#95BF47"/>
<path d="M18.6577 4.49366C18.5691 4.4867 16.8337 4.46014 16.8337 4.46014C16.8337 4.46014 15.3824 3.0519 15.2393 2.91139C15.1839 2.85974 15.1133 2.82714 15.0381 2.81836V24.3753L21.5419 22.7589C21.5419 22.7589 18.8906 4.8171 18.8716 4.69366C18.8635 4.64122 18.8379 4.59301 18.7992 4.55676C18.7604 4.52048 18.7106 4.49829 18.6577 4.49366Z" fill="#5E8E3E"/>
<path d="M11.433 7.83989L10.6774 10.6659C10.0946 10.4245 9.46566 10.3149 8.83557 10.345C7.37165 10.4374 7.3552 11.3614 7.37165 11.593C7.4514 12.8589 10.7767 13.1329 10.9634 16.0937C11.1109 18.4228 9.72799 20.0177 7.73557 20.1443C5.34509 20.295 4.02927 18.8848 4.02927 18.8848L4.5356 16.7329C4.5356 16.7329 5.85901 17.7266 6.91912 17.6582C7.61154 17.6146 7.85964 17.0513 7.83432 16.6532C7.72989 15.0076 5.02231 15.1013 4.85143 12.3924C4.70776 10.114 6.20458 7.80256 9.50836 7.5937C10.7811 7.51458 11.433 7.83989 11.433 7.83989Z" fill="white"/>
<path d="M30.3542 13.8703C29.6005 13.4614 29.215 13.1165 29.215 12.6425C29.215 12.0393 29.7537 11.6519 30.5943 11.6519C31.5727 11.6519 32.4469 12.0608 32.4469 12.0608L33.1309 9.95004C33.1309 9.95004 32.498 9.45447 30.6321 9.45447C28.0373 9.45447 26.2373 10.9405 26.2373 13.0304C26.2373 14.2152 27.0778 15.119 28.1993 15.7659C29.1037 16.283 29.4273 16.6519 29.4273 17.188C29.4273 17.7482 28.9747 18.2007 28.1348 18.2007C26.8828 18.2007 25.7006 17.5545 25.7006 17.5545L24.9664 19.6652C24.9664 19.6652 26.0588 20.3975 27.8961 20.3975C30.5676 20.3975 32.4846 19.0836 32.4846 16.714C32.4872 15.4431 31.5176 14.538 30.3542 13.8703Z" fill="white"/>
<path d="M40.9963 9.43035C39.6824 9.43035 38.6483 10.055 37.8514 11.0025L37.8076 10.9816L38.9469 5.01453H35.9792L33.0926 20.2044H36.0673L37.0576 15.0145C37.4457 13.0525 38.4585 11.85 39.4059 11.85C40.0736 11.85 40.3324 12.3025 40.3324 12.9487C40.3324 13.3899 40.2886 13.83 40.2025 14.2627L39.0807 20.2038H42.0551L43.2179 14.0645C43.3466 13.4257 43.4187 12.7767 43.4338 12.1253C43.4307 10.443 42.5469 9.43035 40.9963 9.43035Z" fill="white"/>
<path d="M50.1514 9.43042C46.5755 9.43042 44.2071 12.664 44.2071 16.2614C44.2071 18.5665 45.6287 20.419 48.3002 20.419C51.8116 20.419 54.1806 17.2741 54.1806 13.5906C54.1792 11.4558 52.9301 9.43042 50.1514 9.43042ZM48.6869 18.133C47.6744 18.133 47.2431 17.2716 47.2431 16.1944C47.2431 14.4925 48.1292 11.714 49.742 11.714C50.7977 11.714 51.142 12.6184 51.142 13.502C51.142 15.3355 50.2591 18.1355 48.6869 18.1355V18.133Z" fill="white"/>
<path d="M61.7835 9.43042C59.7767 9.43042 58.6375 11.2026 58.6375 11.2026H58.5943L58.7664 9.60829H56.1397C56.0133 10.6842 55.7735 12.3228 55.5366 13.5507L53.469 24.4254H56.4437L57.2619 20.0311H57.3252C57.3252 20.0311 57.9355 20.419 59.0701 20.419C62.5602 20.419 64.8431 16.8431 64.8431 13.2241C64.84 11.2209 63.9596 9.43042 61.7835 9.43042ZM58.9406 18.1785C58.4931 18.1851 58.0579 18.0326 57.7127 17.7481L58.2082 14.969C58.5525 13.1165 59.5221 11.8887 60.5556 11.8887C61.4608 11.8887 61.7406 12.7285 61.7406 13.526C61.7386 15.4431 60.5994 18.1785 58.9406 18.1785Z" fill="white"/>
<path d="M69.086 5.16773C68.8608 5.16702 68.6375 5.21131 68.4292 5.29793C68.221 5.38458 68.0323 5.51185 67.8735 5.67231C67.7153 5.83279 67.5906 6.02324 67.5062 6.23251C67.4227 6.4418 67.3809 6.66572 67.3849 6.89114C67.3849 7.77722 67.9448 8.37722 68.7849 8.37722H68.8278C69.7545 8.37722 70.5514 7.75253 70.5727 6.65381C70.5727 5.79242 69.9912 5.16773 69.086 5.16773Z" fill="white"/>
<path d="M64.9292 20.2039H67.902L69.9267 9.66968H66.9324L64.9292 20.2039Z" fill="white"/>
<path d="M77.4872 9.64811H75.4196L75.5272 9.15317C75.6994 8.14052 76.3025 7.23547 77.2937 7.23547C77.6159 7.23595 77.9366 7.28703 78.2429 7.38672L78.8227 5.06331C78.8227 5.06331 78.3057 4.80444 77.2068 4.80444C76.152 4.80444 75.096 5.10635 74.2994 5.79558C73.2866 6.65697 72.8125 7.90635 72.5758 9.15635L72.4897 9.65129H71.1113L70.6804 11.8918H72.0588L70.4861 20.207H73.4608L75.0298 11.8886H77.0758L77.4872 9.64811Z" fill="white"/>
<path d="M84.6392 9.66968C84.6392 9.66968 82.7809 14.3532 81.9463 16.9077H81.904C81.8463 16.0849 81.171 9.66968 81.171 9.66968H78.0474L79.8355 19.3418C79.8787 19.557 79.8571 19.6868 79.7721 19.8374C79.4273 20.5051 78.8457 21.1513 78.1562 21.6254C77.5963 22.0349 76.9716 22.2931 76.4767 22.4652L77.2949 24.9861C77.8983 24.8595 79.1474 24.3608 80.2065 23.3703C81.5633 22.0994 82.8128 20.1387 84.1051 17.4678L87.7457 9.66968H84.6392Z" fill="white"/>
</g>
</svg>
