<svg width="151" height="25" viewBox="0 0 151 25" fill="none" xmlns="http://www.w3.org/2000/svg">
<g clip-path="url(#clip0_911_853)">
<mask id="mask0_911_853" style="mask-type:luminance" maskUnits="userSpaceOnUse" x="0" y="0" width="151" height="25">
<path d="M0 0H150.063V25H0V0Z" fill="white"/>
</mask>
<g mask="url(#mask0_911_853)">
<path d="M89.0173 24.4519L91.0989 13.3545C91.3597 11.9621 91.5545 10.7266 91.6849 9.77091H92.5756L92.2503 11.8772H92.2932C93.2276 10.4659 94.5307 9.55383 95.9205 9.55383C97.8972 9.55383 98.6349 11.2475 98.6349 12.9418C98.6349 16.4602 96.2242 20.4102 92.9014 20.4102C91.8807 20.4102 91.2071 20.1716 90.8168 19.9545H90.773L89.9503 24.4482L89.0173 24.4519ZM90.9716 19.0007C91.4494 19.3697 92.1446 19.5868 92.9915 19.5868C95.7497 19.5868 97.6611 15.6779 97.6611 13.0045C97.6611 11.7665 97.1832 10.3981 95.6415 10.3981C94.1642 10.3981 92.2313 12.2659 91.6452 15.4152L90.9716 19.0007Z" fill="white"/>
<path d="M105.824 20.195C105.802 19.5652 105.932 18.588 106.084 17.3937H106.042C104.847 19.6956 103.523 20.4121 102.154 20.4121C100.572 20.4121 99.6133 19.1089 99.6133 17.2412C99.6133 13.7013 102.154 9.55322 106.195 9.55322C106.934 9.55322 107.759 9.68359 108.302 9.85703L107.194 15.4823C106.825 17.4152 106.695 19.0899 106.739 20.195H105.824ZM107.216 10.5519C106.977 10.4652 106.608 10.4001 105.956 10.4001C102.959 10.4001 100.614 13.745 100.592 17.0241C100.57 18.3709 100.961 19.5868 102.373 19.5868C104.067 19.5868 105.98 17.0463 106.478 14.3526L107.216 10.5519Z" fill="white"/>
<path d="M109.19 20.195L110.515 13.1798C110.775 11.8551 110.928 10.6823 111.014 9.7703H111.883C111.796 10.4437 111.709 11.1387 111.579 12.0292H111.623C112.274 10.6368 113.295 9.55322 114.597 9.55322C114.729 9.5545 114.86 9.5689 114.989 9.59626L114.814 10.5741C114.694 10.546 114.57 10.5314 114.445 10.5304C113.077 10.5304 111.557 12.5937 111.122 14.8975L110.145 20.1969L109.19 20.195Z" fill="white"/>
<path d="M118.941 7.46838L118.486 9.77091H120.939L120.766 10.5747H118.311L117.16 16.7861C117.03 17.4823 116.943 18.0241 116.943 18.5886C116.943 19.1969 117.225 19.5659 117.877 19.5659C118.225 19.5659 118.442 19.5443 118.637 19.4791L118.7 20.2386C118.369 20.3379 118.025 20.389 117.679 20.3905C116.441 20.3905 115.963 19.5677 115.963 18.6968C115.963 18.1317 116.027 17.5886 116.203 16.7855L117.375 10.5741H115.877L116.028 9.77026H117.547L117.895 7.90256L118.941 7.46838Z" fill="white"/>
<path d="M120.7 20.195L122.093 12.8323C122.303 11.8204 122.463 10.7984 122.57 9.7703H123.439L123.155 11.8988H123.198C124.11 10.3798 125.413 9.55322 126.825 9.55322C127.846 9.55322 129.149 10.2045 129.149 12.1811C129.149 12.7019 129.062 13.2235 128.953 13.788L127.759 20.195H126.825L128.041 13.788C128.138 13.2873 128.189 12.7789 128.193 12.269C128.193 11.183 127.759 10.4013 126.477 10.4013C125.085 10.4013 123.133 12.1387 122.68 14.6583L121.659 20.1963L120.7 20.195Z" fill="white"/>
<path d="M136.793 19.6089C136.251 19.9564 135.251 20.3906 133.949 20.3906C131.516 20.3906 130.669 18.4792 130.669 16.4811C130.669 13.4842 132.754 9.55322 135.751 9.55322C137.467 9.55322 138.184 10.6823 138.184 11.8317C138.184 14.4811 135.145 15.2197 131.733 15.1982C131.625 15.676 131.606 17.0444 131.82 17.7823C132.189 18.9773 132.993 19.5418 134.099 19.5418C135.249 19.5418 136.032 19.1292 136.509 18.8456L136.793 19.6089ZM135.577 10.4001C133.97 10.4001 132.515 12.1374 131.885 14.3747C134.6 14.3963 137.206 13.9399 137.206 11.8766C137.206 10.8994 136.554 10.4001 135.577 10.4001Z" fill="white"/>
<path d="M138.705 20.195L140.03 13.1798C140.291 11.8551 140.442 10.6823 140.529 9.7703H141.398C141.311 10.4437 141.224 11.1387 141.094 12.0292H141.137C141.789 10.6368 142.81 9.55322 144.112 9.55322C144.244 9.5545 144.375 9.5689 144.503 9.59626L144.329 10.5741C144.208 10.546 144.084 10.5314 143.96 10.5304C142.592 10.5304 141.072 12.5937 140.637 14.8975L139.66 20.1969L138.705 20.195Z" fill="white"/>
<path d="M144.069 18.9791C144.618 19.3393 145.259 19.5351 145.915 19.5436C147.284 19.5436 148.194 18.5664 148.194 17.3917C148.194 16.3487 147.76 15.719 146.782 15.0892C145.762 14.4158 145.196 13.4822 145.196 12.5265C145.196 10.8974 146.5 9.55188 148.324 9.55188C149.041 9.55188 149.758 9.79049 150.062 10.0297L149.714 10.8342C149.387 10.6386 148.823 10.4 148.215 10.4C146.955 10.4 146.13 11.269 146.13 12.3544C146.13 13.3322 146.673 13.8734 147.542 14.443C148.541 15.1164 149.149 16.0715 149.149 17.1145C149.149 19.2209 147.607 20.3936 145.826 20.3936C144.892 20.3936 144.067 20.0462 143.719 19.7639L144.069 18.9791Z" fill="white"/>
<path d="M18.8716 4.69372C18.8634 4.64125 18.8379 4.59304 18.7991 4.55679C18.7603 4.52051 18.7105 4.49832 18.6577 4.49372C18.5691 4.48673 16.8336 4.46017 16.8336 4.46017C16.8336 4.46017 15.3823 3.05193 15.2393 2.91142C15.0963 2.77092 14.8159 2.81206 14.707 2.84372L13.9779 3.06966C13.888 2.77378 13.7713 2.48672 13.6292 2.21206C13.1121 1.22662 12.3558 0.704463 11.4418 0.703199H11.4387C11.3754 0.703199 11.3121 0.709529 11.2488 0.715225C11.2222 0.682946 11.195 0.651932 11.1659 0.619656C10.7684 0.193707 10.257 -0.0132549 9.64692 0.00446663C8.464 0.0348464 7.28868 0.886111 6.33488 2.4051C5.66272 3.46838 5.15638 4.81017 5.00891 5.84372L2.68361 6.56395C1.99943 6.77852 1.97792 6.80003 1.88804 7.44497C1.82032 7.93295 0.0298157 21.7804 0.0298157 21.7804L15.0374 24.3753L21.5418 22.7589C21.5418 22.7589 18.8906 4.81713 18.8716 4.69372ZM13.226 3.3013L12.0615 3.66142C12.0526 3.06395 11.9817 2.23168 11.7026 1.51269C12.5988 1.68105 13.04 2.69434 13.226 3.2994V3.3013ZM11.2767 3.90446L8.77096 4.67852C9.01337 3.7513 9.47224 2.82788 10.0368 2.22345C10.2736 1.95938 10.5634 1.74825 10.8874 1.60383C11.2134 2.28484 11.2843 3.25068 11.2767 3.90255V3.90446ZM9.6678 0.786742C9.91806 0.773617 10.1662 0.838648 10.3779 0.972818C10.0335 1.15696 9.72312 1.39863 9.46022 1.68738C8.71022 2.49181 8.13553 3.74116 7.90641 4.94625L5.85261 5.58358C6.25513 3.68611 7.84502 0.839276 9.6678 0.786742Z" fill="#95BF47"/>
<path d="M18.6577 4.49366C18.5691 4.4867 16.8337 4.46014 16.8337 4.46014C16.8337 4.46014 15.3824 3.0519 15.2393 2.91139C15.1839 2.85974 15.1133 2.82714 15.0381 2.81836V24.3753L21.5419 22.7589C21.5419 22.7589 18.8906 4.8171 18.8716 4.69366C18.8635 4.64122 18.8379 4.59301 18.7992 4.55676C18.7604 4.52048 18.7106 4.49829 18.6577 4.49366Z" fill="#5E8E3E"/>
<path d="M11.433 7.83989L10.6774 10.6659C10.0946 10.4245 9.46566 10.3149 8.83557 10.345C7.37165 10.4374 7.3552 11.3614 7.37165 11.593C7.4514 12.8589 10.7767 13.1329 10.9634 16.0937C11.1109 18.4228 9.72799 20.0177 7.73557 20.1443C5.34509 20.295 4.02927 18.8848 4.02927 18.8848L4.5356 16.7329C4.5356 16.7329 5.85901 17.7266 6.91912 17.6582C7.61154 17.6146 7.85964 17.0513 7.83432 16.6532C7.72989 15.0076 5.02231 15.1013 4.85143 12.3924C4.70776 10.114 6.20458 7.80256 9.50836 7.5937C10.7811 7.51458 11.433 7.83989 11.433 7.83989Z" fill="white"/>
<path d="M30.3542 13.8703C29.6005 13.4614 29.215 13.1165 29.215 12.6425C29.215 12.0393 29.7537 11.6519 30.5943 11.6519C31.5727 11.6519 32.4469 12.0608 32.4469 12.0608L33.1309 9.95004C33.1309 9.95004 32.498 9.45447 30.6321 9.45447C28.0373 9.45447 26.2373 10.9405 26.2373 13.0304C26.2373 14.2152 27.0778 15.119 28.1993 15.7659C29.1037 16.283 29.4273 16.6519 29.4273 17.188C29.4273 17.7482 28.9747 18.2007 28.1348 18.2007C26.8828 18.2007 25.7006 17.5545 25.7006 17.5545L24.9664 19.6652C24.9664 19.6652 26.0588 20.3975 27.8961 20.3975C30.5676 20.3975 32.4846 19.0836 32.4846 16.714C32.4872 15.4431 31.5176 14.538 30.3542 13.8703Z" fill="white"/>
<path d="M40.9963 9.43035C39.6824 9.43035 38.6483 10.055 37.8514 11.0025L37.8076 10.9816L38.9469 5.01453H35.9792L33.0926 20.2044H36.0673L37.0576 15.0145C37.4457 13.0525 38.4585 11.85 39.4059 11.85C40.0736 11.85 40.3324 12.3025 40.3324 12.9487C40.3324 13.3899 40.2886 13.83 40.2025 14.2627L39.0807 20.2038H42.0551L43.2179 14.0645C43.3466 13.4257 43.4187 12.7767 43.4338 12.1253C43.4307 10.443 42.5469 9.43035 40.9963 9.43035Z" fill="white"/>
<path d="M50.1514 9.43042C46.5755 9.43042 44.2071 12.664 44.2071 16.2614C44.2071 18.5665 45.6287 20.419 48.3002 20.419C51.8116 20.419 54.1806 17.2741 54.1806 13.5906C54.1792 11.4558 52.9301 9.43042 50.1514 9.43042ZM48.6869 18.133C47.6744 18.133 47.2431 17.2716 47.2431 16.1944C47.2431 14.4925 48.1292 11.714 49.742 11.714C50.7977 11.714 51.142 12.6184 51.142 13.502C51.142 15.3355 50.2591 18.1355 48.6869 18.1355V18.133Z" fill="white"/>
<path d="M61.7835 9.43042C59.7767 9.43042 58.6375 11.2026 58.6375 11.2026H58.5943L58.7664 9.60829H56.1397C56.0133 10.6842 55.7735 12.3228 55.5366 13.5507L53.469 24.4254H56.4437L57.2619 20.0311H57.3252C57.3252 20.0311 57.9355 20.419 59.0701 20.419C62.5602 20.419 64.8431 16.8431 64.8431 13.2241C64.84 11.2209 63.9596 9.43042 61.7835 9.43042ZM58.9406 18.1785C58.4931 18.1851 58.0579 18.0326 57.7127 17.7481L58.2082 14.969C58.5525 13.1165 59.5221 11.8887 60.5556 11.8887C61.4608 11.8887 61.7406 12.7285 61.7406 13.526C61.7386 15.4431 60.5994 18.1785 58.9406 18.1785Z" fill="white"/>
<path d="M69.086 5.16773C68.8608 5.16702 68.6375 5.21131 68.4292 5.29793C68.221 5.38458 68.0323 5.51185 67.8735 5.67231C67.7153 5.83279 67.5906 6.02324 67.5062 6.23251C67.4227 6.4418 67.3809 6.66572 67.3849 6.89114C67.3849 7.77722 67.9448 8.37722 68.7849 8.37722H68.8278C69.7545 8.37722 70.5514 7.75253 70.5727 6.65381C70.5727 5.79242 69.9912 5.16773 69.086 5.16773Z" fill="white"/>
<path d="M64.9293 20.2039H67.902L69.9267 9.66968H66.9324L64.9293 20.2039Z" fill="white"/>
<path d="M77.4872 9.64811H75.4196L75.5273 9.15317C75.6994 8.14052 76.3026 7.23547 77.2938 7.23547C77.6159 7.23595 77.9367 7.28703 78.2429 7.38672L78.8227 5.06331C78.8227 5.06331 78.3057 4.80444 77.2068 4.80444C76.152 4.80444 75.096 5.10635 74.2994 5.79558C73.2867 6.65697 72.8125 7.90635 72.5759 9.15635L72.4898 9.65129H71.1114L70.6804 11.8918H72.0588L70.4861 20.207H73.4608L75.0298 11.8886H77.0759L77.4872 9.64811Z" fill="white"/>
<path d="M84.6392 9.66968C84.6392 9.66968 82.7809 14.3532 81.9463 16.9077H81.904C81.8463 16.0849 81.171 9.66968 81.171 9.66968H78.0474L79.8355 19.3418C79.8787 19.557 79.8571 19.6868 79.7721 19.8374C79.4273 20.5051 78.8457 21.1513 78.1562 21.6254C77.5963 22.0349 76.9716 22.2931 76.4767 22.4652L77.2949 24.9861C77.8983 24.8595 79.1474 24.3608 80.2065 23.3703C81.5633 22.0994 82.8128 20.1387 84.1051 17.4678L87.7457 9.66968H84.6392Z" fill="white"/>
</g>
</g>
<defs>
<clipPath id="clip0_911_853">
<rect width="150.284" height="25" fill="white"/>
</clipPath>
</defs>
</svg>
