<svg width="130" height="40" viewBox="0 0 130 40" fill="none" xmlns="http://www.w3.org/2000/svg">
<g clip-path="url(#clip0_7_2810)">
<path d="M2.01172 15.1183L6.87604 0.234375H11.2435L16.0458 15.1183H12.5476L11.5333 11.8085H6.17227L5.15801 15.1183H2.01172ZM8.86317 2.98218L6.89674 9.41455H10.8088L8.86317 2.98218Z" fill="#1E1E1E"/>
<path d="M18.0684 15.1183V0.234375H23.1811C26.7828 0.234375 28.832 1.83727 28.832 4.98059V5.06386C28.832 8.20718 26.6586 9.70597 23.2846 9.70597H21.401V15.1183H18.0684ZM21.401 7.35369H23.0983C24.7336 7.35369 25.6029 6.56265 25.6029 5.08466V5.0014C25.6029 3.41933 24.6922 2.79484 23.0983 2.79484H21.401V7.35369Z" fill="#1E1E1E"/>
<path d="M31.0254 15.1183V0.234375H36.1382C39.7398 0.234375 41.789 1.83727 41.789 4.98059V5.06386C41.789 8.20718 39.6156 9.70597 36.2416 9.70597H34.358V15.1183H31.0254ZM34.358 7.35369H36.0554C37.6906 7.35369 38.56 6.56265 38.56 5.08466V5.0014C38.56 3.41933 37.6492 2.79484 36.0554 2.79484H34.358V7.35369Z" fill="#1E1E1E"/>
<path d="M41.793 15.1183L46.6573 0.234375H51.0249L55.8271 15.1183H52.3289L51.3146 11.8085H45.9535L44.9393 15.1183H41.793ZM48.6444 2.98218L46.678 9.41455H50.5902L48.6444 2.98218Z" fill="#1E1E1E"/>
<path d="M57.8496 15.1183V0.234375H63.1486C66.6468 0.234375 68.8616 1.67073 68.8616 4.75161V4.83487C68.8616 7.08308 67.5576 8.26962 65.8188 8.79004L69.731 15.1183H66.1707L62.6312 9.37292H61.1822V15.1183H57.8496ZM61.1822 7.08308H63.0658C64.7425 7.08308 65.5911 6.3753 65.5911 4.93895V4.85569C65.5911 3.33607 64.6804 2.81564 63.0658 2.81564H61.1822V7.08308Z" fill="#1E1E1E"/>
<path d="M71.7568 15.1183V0.234375H81.4027V2.85729H75.0894V6.33367H80.14V8.79004H75.0894V12.4954H81.7339V15.1183H71.7568Z" fill="#1E1E1E"/>
<path d="M84.0674 15.1183V0.234375H87.9589L93.5891 10.039V0.234375H96.5697V15.1183H93.2165L87.0481 4.52261V15.1183H84.0674Z" fill="#1E1E1E"/>
<path d="M102.651 15.1183V2.85729H98.6562V0.234375H110.02V2.85729H106.025V15.1183H102.651Z" fill="#1E1E1E"/>
<path d="M9.83532 38.2901C4.9917 38.2901 2.4043 35.2925 2.4043 30.7128V30.5463C2.4043 26.0291 5.55058 22.9482 9.75253 22.9482C13.3128 22.9482 15.9623 24.6968 16.3141 28.3605H12.8781C12.6297 26.5703 11.6361 25.6127 9.77322 25.6127C7.43421 25.6127 5.94387 27.4446 5.94387 30.5255V30.692C5.94387 33.7729 7.35142 35.5631 9.79392 35.5631C11.6361 35.5631 12.9195 34.6264 13.1886 32.7112H16.4797C16.1071 36.3958 13.4783 38.2901 9.83532 38.2901Z" fill="#1E1E1E"/>
<path d="M25.4853 38.2898C20.8486 38.2898 17.8887 35.0632 17.8887 30.7125V30.546C17.8887 26.112 21.1177 22.9688 25.506 22.9688C29.9563 22.9688 33.1233 25.9871 33.1233 30.4627V30.6293C33.1233 35.0632 30.1012 38.2898 25.4853 38.2898ZM25.5474 35.6045C28.052 35.6045 29.6251 33.6686 29.6251 30.6709V30.5044C29.6251 27.6108 28.0934 25.6332 25.506 25.6332C22.9393 25.6332 21.3868 27.5276 21.3868 30.5252V30.6917C21.3868 33.7309 23.1256 35.6045 25.5474 35.6045Z" fill="#1E1E1E"/>
<path d="M35.5537 38.0611V23.1772H38.907V35.4174H44.9304V38.0611H35.5537Z" fill="#1E1E1E"/>
<path d="M47.1367 38.0611V23.1772H50.4899V35.4174H56.5134V38.0611H47.1367Z" fill="#1E1E1E"/>
<path d="M58.7188 38.0611V23.1772H68.3647V25.8001H62.0513V29.2765H67.1019V31.7328H62.0513V35.4382H68.6959V38.0611H58.7188Z" fill="#1E1E1E"/>
<path d="M77.4925 38.2901C72.6489 38.2901 70.0615 35.2925 70.0615 30.7128V30.5463C70.0615 26.0291 73.2078 22.9482 77.4097 22.9482C80.97 22.9482 83.6195 24.6968 83.9714 28.3605H80.5353C80.2869 26.5703 79.2934 25.6127 77.4304 25.6127C75.0914 25.6127 73.6011 27.4446 73.6011 30.5255V30.692C73.6011 33.7729 75.0086 35.5631 77.4511 35.5631C79.2934 35.5631 80.5767 34.6264 80.8458 32.7112H84.137C83.7644 36.3958 81.1356 38.2901 77.4925 38.2901Z" fill="#1E1E1E"/>
<path d="M89.0066 38.0611V25.8001H85.0117V23.1772H96.3755V25.8001H92.3806V38.0611H89.0066Z" fill="#1E1E1E"/>
<path d="M98.543 38.0611V23.1772H101.917V38.0611H98.543Z" fill="#1E1E1E"/>
<path d="M108.938 38.0611L103.991 23.1772H107.53L111.049 34.6055L114.568 23.1772H117.714L112.788 38.0611H108.938Z" fill="#1E1E1E"/>
<path d="M119.705 38.0611V23.1772H129.351V25.8001H123.037V29.2765H128.088V31.7328H123.037V35.4382H129.682V38.0611H119.705Z" fill="#1E1E1E"/>
</g>
<defs>
<clipPath id="clip0_7_2810">
<rect width="130" height="39" fill="white" transform="translate(0 0.234375)"/>
</clipPath>
</defs>
</svg>
