<svg width="124" height="38" viewBox="0 0 124 38" fill="none" xmlns="http://www.w3.org/2000/svg">
<path d="M0.42 15L5.12 0.699999H9.34L13.98 15H10.6L9.62 11.82H4.44L3.46 15H0.42ZM7.04 3.34L5.14 9.52H8.92L7.04 3.34ZM15.9345 15V0.699999H20.8745C24.3545 0.699999 26.3345 2.24 26.3345 5.26V5.34C26.3345 8.36 24.2345 9.8 20.9745 9.8H19.1545V15H15.9345ZM19.1545 7.54H20.7945C22.3745 7.54 23.2145 6.78 23.2145 5.36V5.28C23.2145 3.76 22.3345 3.16 20.7945 3.16H19.1545V7.54ZM28.4541 15V0.699999H33.3941C36.8741 0.699999 38.8541 2.24 38.8541 5.26V5.34C38.8541 8.36 36.7541 9.8 33.4941 9.8H31.6741V15H28.4541ZM31.6741 7.54H33.3141C34.8941 7.54 35.7341 6.78 35.7341 5.36V5.28C35.7341 3.76 34.8541 3.16 33.3141 3.16H31.6741V7.54ZM38.8575 15L43.5575 0.699999H47.7775L52.4175 15H49.0375L48.0575 11.82H42.8775L41.8975 15H38.8575ZM45.4775 3.34L43.5775 9.52H47.3575L45.4775 3.34ZM54.372 15V0.699999H59.492C62.872 0.699999 65.012 2.08 65.012 5.04V5.12C65.012 7.28 63.752 8.42 62.072 8.92L65.852 15H62.412L58.992 9.48H57.592V15H54.372ZM57.592 7.28H59.412C61.032 7.28 61.852 6.6 61.852 5.22V5.14C61.852 3.68 60.972 3.18 59.412 3.18H57.592V7.28ZM67.8095 15V0.699999H77.1295V3.22H71.0295V6.56H75.9095V8.92H71.0295V12.48H77.4495V15H67.8095ZM79.7041 15V0.699999H83.4641L88.9041 10.12V0.699999H91.7841V15H88.5441L82.5841 4.82V15H79.7041ZM97.6603 15V3.22H93.8003V0.699999H104.78V3.22H100.92V15H97.6603ZM7.98 37.22C3.3 37.22 0.8 34.34 0.8 29.94V29.78C0.8 25.44 3.84 22.48 7.9 22.48C11.34 22.48 13.9 24.16 14.24 27.68H10.92C10.68 25.96 9.72 25.04 7.92 25.04C5.66 25.04 4.22 26.8 4.22 29.76V29.92C4.22 32.88 5.58 34.6 7.94 34.6C9.72 34.6 10.96 33.7 11.22 31.86H14.4C14.04 35.4 11.5 37.22 7.98 37.22ZM23.1009 37.22C18.6209 37.22 15.7609 34.12 15.7609 29.94V29.78C15.7609 25.52 18.8809 22.5 23.1209 22.5C27.4209 22.5 30.4809 25.4 30.4809 29.7V29.86C30.4809 34.12 27.5609 37.22 23.1009 37.22ZM23.1609 34.64C25.5809 34.64 27.1009 32.78 27.1009 29.9V29.74C27.1009 26.96 25.6209 25.06 23.1209 25.06C20.6409 25.06 19.1409 26.88 19.1409 29.76V29.92C19.1409 32.84 20.8209 34.64 23.1609 34.64ZM32.8291 37V22.7H36.0691V34.46H41.8891V37H32.8291ZM44.0205 37V22.7H47.2605V34.46H53.0805V37H44.0205ZM55.2119 37V22.7H64.5319V25.22H58.4319V28.56H63.3119V30.92H58.4319V34.48H64.8519V37H55.2119ZM73.3511 37.22C68.6711 37.22 66.1711 34.34 66.1711 29.94V29.78C66.1711 25.44 69.2111 22.48 73.2711 22.48C76.7111 22.48 79.2711 24.16 79.6111 27.68H76.2911C76.0511 25.96 75.0911 25.04 73.2911 25.04C71.0311 25.04 69.5911 26.8 69.5911 29.76V29.92C69.5911 32.88 70.9511 34.6 73.3111 34.6C75.0911 34.6 76.3311 33.7 76.5911 31.86H79.7711C79.4111 35.4 76.8711 37.22 73.3511 37.22ZM84.4767 37V25.22H80.6167V22.7H91.5967V25.22H87.7367V37H84.4767ZM93.6903 37V22.7H96.9503V37H93.6903ZM103.734 37L98.9542 22.7H102.374L105.774 33.68L109.174 22.7H112.214L107.454 37H103.734ZM114.138 37V22.7H123.458V25.22H117.358V28.56H122.238V30.92H117.358V34.48H123.778V37H114.138Z" fill="white"/>
</svg>
