<svg width="127" height="39" viewBox="0 0 127 39" fill="none" xmlns="http://www.w3.org/2000/svg">
<path d="M19.4833 30.4704H15.8929L5.09036 14.1777V30.4704H1.5V8.62126H5.09036L15.8929 24.8825V8.62126H19.4833V30.4704Z" fill="#1E1E1E"/>
<path d="M37.6462 30.6901C35.6095 30.6901 33.7304 30.2192 32.0087 29.2775C30.308 28.3148 28.9537 26.9858 27.9459 25.2906C26.9591 23.5745 26.4657 21.6491 26.4657 19.5144C26.4657 17.3797 26.9591 15.4648 27.9459 13.7696C28.9537 12.0744 30.308 10.7559 32.0087 9.81417C33.7304 8.85147 35.6095 8.37012 37.6462 8.37012C39.7038 8.37012 41.583 8.85147 43.2837 9.81417C45.0054 10.7559 46.3596 12.0744 47.3464 13.7696C48.3333 15.4648 48.8267 17.3797 48.8267 19.5144C48.8267 21.6491 48.3333 23.5745 47.3464 25.2906C46.3596 26.9858 45.0054 28.3148 43.2837 29.2775C41.583 30.2192 39.7038 30.6901 37.6462 30.6901ZM37.6462 27.5823C39.0949 27.5823 40.3862 27.2579 41.52 26.6091C42.6538 25.9394 43.5356 24.9976 44.1655 23.7838C44.8164 22.549 45.1418 21.1259 45.1418 19.5144C45.1418 17.9029 44.8164 16.4903 44.1655 15.2764C43.5356 14.0626 42.6538 13.1313 41.52 12.4825C40.3862 11.8337 39.0949 11.5094 37.6462 11.5094C36.1974 11.5094 34.9062 11.8337 33.7724 12.4825C32.6386 13.1313 31.7462 14.0626 31.0954 15.2764C30.4655 16.4903 30.1505 17.9029 30.1505 19.5144C30.1505 21.1259 30.4655 22.549 31.0954 23.7838C31.7462 24.9976 32.6386 25.9394 33.7724 26.6091C34.9062 27.2579 36.1974 27.5823 37.6462 27.5823Z" fill="#1E1E1E"/>
<path d="M65.8078 30.6901C63.7712 30.6901 61.892 30.2192 60.1703 29.2775C58.4696 28.3148 57.1154 26.9858 56.1075 25.2906C55.1207 23.5745 54.6273 21.6491 54.6273 19.5144C54.6273 17.3797 55.1207 15.4648 56.1075 13.7696C57.1154 12.0744 58.4696 10.7559 60.1703 9.81417C61.892 8.85147 63.7712 8.37012 65.8078 8.37012C67.8654 8.37012 69.7446 8.85147 71.4453 9.81417C73.167 10.7559 74.5212 12.0744 75.5081 13.7696C76.4949 15.4648 76.9883 17.3797 76.9883 19.5144C76.9883 21.6491 76.4949 23.5745 75.5081 25.2906C74.5212 26.9858 73.167 28.3148 71.4453 29.2775C69.7446 30.2192 67.8654 30.6901 65.8078 30.6901ZM65.8078 27.5823C67.2565 27.5823 68.5478 27.2579 69.6816 26.6091C70.8154 25.9394 71.6973 24.9976 72.3271 23.7838C72.978 22.549 73.3035 21.1259 73.3035 19.5144C73.3035 17.9029 72.978 16.4903 72.3271 15.2764C71.6973 14.0626 70.8154 13.1313 69.6816 12.4825C68.5478 11.8337 67.2565 11.5094 65.8078 11.5094C64.3591 11.5094 63.0678 11.8337 61.934 12.4825C60.8002 13.1313 59.9079 14.0626 59.257 15.2764C58.6271 16.4903 58.3121 17.9029 58.3121 19.5144C58.3121 21.1259 58.6271 22.549 59.257 23.7838C59.9079 24.9976 60.8002 25.9394 61.934 26.6091C63.0678 27.2579 64.3591 27.5823 65.8078 27.5823Z" fill="#1E1E1E"/>
<path d="M95.3552 30.4704L90.3161 21.7433H87.5761V30.4704H83.9857V8.65265H91.5444C93.2241 8.65265 94.6413 8.94564 95.7961 9.53164C96.9719 10.1176 97.8432 10.9024 98.4101 11.8861C98.998 12.8697 99.292 13.9684 99.292 15.1823C99.292 16.6054 98.8721 17.9029 98.0322 19.0749C97.2133 20.226 95.9431 21.0108 94.2214 21.4294L99.6384 30.4704H95.3552ZM87.5761 18.8866H91.5444C92.8881 18.8866 93.8959 18.5517 94.5678 17.882C95.2607 17.2123 95.6071 16.3124 95.6071 15.1823C95.6071 14.0521 95.2712 13.1732 94.5993 12.5453C93.9274 11.8965 92.9091 11.5721 91.5444 11.5721H87.5761V18.8866Z" fill="#1E1E1E"/>
<path d="M114.499 8.65265C116.829 8.65265 118.866 9.10261 120.608 10.0025C122.372 10.8815 123.726 12.1581 124.671 13.8324C125.637 15.4857 126.12 17.4216 126.12 19.64C126.12 21.8584 125.637 23.7838 124.671 25.4162C123.726 27.0486 122.372 28.3043 120.608 29.1833C118.866 30.0413 116.829 30.4704 114.499 30.4704H107.349V8.65265H114.499ZM114.499 27.5509C117.06 27.5509 119.023 26.8602 120.388 25.479C121.753 24.0977 122.435 22.1514 122.435 19.64C122.435 17.1077 121.753 15.1299 120.388 13.7068C119.023 12.2837 117.06 11.5721 114.499 11.5721H110.94V27.5509H114.499Z" fill="#1E1E1E"/>
<path d="M19.4833 30.4704H15.8929L5.09036 14.1777V30.4704H1.5V8.62126H5.09036L15.8929 24.8825V8.62126H19.4833V30.4704Z" stroke="#1E1E1E" stroke-width="0.279"/>
<path d="M37.6462 30.6901C35.6095 30.6901 33.7304 30.2192 32.0087 29.2775C30.308 28.3148 28.9537 26.9858 27.9459 25.2906C26.9591 23.5745 26.4657 21.6491 26.4657 19.5144C26.4657 17.3797 26.9591 15.4648 27.9459 13.7696C28.9537 12.0744 30.308 10.7559 32.0087 9.81417C33.7304 8.85147 35.6095 8.37012 37.6462 8.37012C39.7038 8.37012 41.583 8.85147 43.2837 9.81417C45.0054 10.7559 46.3596 12.0744 47.3464 13.7696C48.3333 15.4648 48.8267 17.3797 48.8267 19.5144C48.8267 21.6491 48.3333 23.5745 47.3464 25.2906C46.3596 26.9858 45.0054 28.3148 43.2837 29.2775C41.583 30.2192 39.7038 30.6901 37.6462 30.6901ZM37.6462 27.5823C39.0949 27.5823 40.3862 27.2579 41.52 26.6091C42.6538 25.9394 43.5356 24.9976 44.1655 23.7838C44.8164 22.549 45.1418 21.1259 45.1418 19.5144C45.1418 17.9029 44.8164 16.4903 44.1655 15.2764C43.5356 14.0626 42.6538 13.1313 41.52 12.4825C40.3862 11.8337 39.0949 11.5094 37.6462 11.5094C36.1974 11.5094 34.9062 11.8337 33.7724 12.4825C32.6386 13.1313 31.7462 14.0626 31.0954 15.2764C30.4655 16.4903 30.1505 17.9029 30.1505 19.5144C30.1505 21.1259 30.4655 22.549 31.0954 23.7838C31.7462 24.9976 32.6386 25.9394 33.7724 26.6091C34.9062 27.2579 36.1974 27.5823 37.6462 27.5823Z" stroke="#1E1E1E" stroke-width="0.279"/>
<path d="M65.8078 30.6901C63.7712 30.6901 61.892 30.2192 60.1703 29.2775C58.4696 28.3148 57.1154 26.9858 56.1075 25.2906C55.1207 23.5745 54.6273 21.6491 54.6273 19.5144C54.6273 17.3797 55.1207 15.4648 56.1075 13.7696C57.1154 12.0744 58.4696 10.7559 60.1703 9.81417C61.892 8.85147 63.7712 8.37012 65.8078 8.37012C67.8654 8.37012 69.7446 8.85147 71.4453 9.81417C73.167 10.7559 74.5212 12.0744 75.5081 13.7696C76.4949 15.4648 76.9883 17.3797 76.9883 19.5144C76.9883 21.6491 76.4949 23.5745 75.5081 25.2906C74.5212 26.9858 73.167 28.3148 71.4453 29.2775C69.7446 30.2192 67.8654 30.6901 65.8078 30.6901ZM65.8078 27.5823C67.2565 27.5823 68.5478 27.2579 69.6816 26.6091C70.8154 25.9394 71.6973 24.9976 72.3271 23.7838C72.978 22.549 73.3035 21.1259 73.3035 19.5144C73.3035 17.9029 72.978 16.4903 72.3271 15.2764C71.6973 14.0626 70.8154 13.1313 69.6816 12.4825C68.5478 11.8337 67.2565 11.5094 65.8078 11.5094C64.3591 11.5094 63.0678 11.8337 61.934 12.4825C60.8002 13.1313 59.9079 14.0626 59.257 15.2764C58.6271 16.4903 58.3121 17.9029 58.3121 19.5144C58.3121 21.1259 58.6271 22.549 59.257 23.7838C59.9079 24.9976 60.8002 25.9394 61.934 26.6091C63.0678 27.2579 64.3591 27.5823 65.8078 27.5823Z" stroke="#1E1E1E" stroke-width="0.279"/>
<path d="M95.3552 30.4704L90.3161 21.7433H87.5761V30.4704H83.9857V8.65265H91.5444C93.2241 8.65265 94.6413 8.94564 95.7961 9.53164C96.9719 10.1176 97.8432 10.9024 98.4101 11.8861C98.998 12.8697 99.292 13.9684 99.292 15.1823C99.292 16.6054 98.8721 17.9029 98.0322 19.0749C97.2133 20.226 95.9431 21.0108 94.2214 21.4294L99.6384 30.4704H95.3552ZM87.5761 18.8866H91.5444C92.8881 18.8866 93.8959 18.5517 94.5678 17.882C95.2607 17.2123 95.6071 16.3124 95.6071 15.1823C95.6071 14.0521 95.2712 13.1732 94.5993 12.5453C93.9274 11.8965 92.9091 11.5721 91.5444 11.5721H87.5761V18.8866Z" stroke="#1E1E1E" stroke-width="0.279"/>
<path d="M114.499 8.65265C116.829 8.65265 118.866 9.10261 120.608 10.0025C122.372 10.8815 123.726 12.1581 124.671 13.8324C125.637 15.4857 126.12 17.4216 126.12 19.64C126.12 21.8584 125.637 23.7838 124.671 25.4162C123.726 27.0486 122.372 28.3043 120.608 29.1833C118.866 30.0413 116.829 30.4704 114.499 30.4704H107.349V8.65265H114.499ZM114.499 27.5509C117.06 27.5509 119.023 26.8602 120.388 25.479C121.753 24.0977 122.435 22.1514 122.435 19.64C122.435 17.1077 121.753 15.1299 120.388 13.7068C119.023 12.2837 117.06 11.5721 114.499 11.5721H110.94V27.5509H114.499Z" stroke="#1E1E1E" stroke-width="0.279"/>
</svg>
