<svg width="140" height="39" viewBox="0 0 140 39" fill="none" xmlns="http://www.w3.org/2000/svg">
<path fill-rule="evenodd" clip-rule="evenodd" d="M5.33093 20.5875C1.47225 16.7288 1.47225 10.4726 5.33093 6.61397C9.1896 2.7553 15.4457 2.7553 19.3044 6.61398L5.33093 20.5875ZM29.2196 27.8588C27.2139 27.8588 25.4732 27.4208 23.9977 26.5447C22.5221 25.6455 21.3809 24.4467 20.574 22.9481C19.7671 21.4495 19.3636 19.7895 19.3636 17.9682C19.3636 16.0777 19.7786 14.3946 20.6086 12.9191C21.4616 11.4436 22.6028 10.2793 24.0322 9.42626C25.4617 8.57323 27.0755 8.14671 28.8738 8.14671C30.3724 8.14671 31.6981 8.38879 32.8508 8.87294C34.0036 9.33404 34.9719 9.99111 35.7558 10.8442C36.5627 11.6972 37.1736 12.6886 37.5886 13.8183C38.0036 14.9249 38.2111 16.1353 38.2111 17.4494C38.2111 17.8183 38.1881 18.1872 38.142 18.5561C38.1189 18.9019 38.0613 19.2016 37.969 19.4552H24.7441C24.806 19.9385 24.9261 20.3881 25.1043 20.8039C25.4501 21.6109 25.9804 22.2449 26.6951 22.706C27.4098 23.144 28.2744 23.3631 29.2888 23.3631C30.211 23.3631 30.9949 23.1786 31.6404 22.8097C32.309 22.4409 32.8278 21.9336 33.1966 21.2881L37.3466 23.2593C36.9777 24.1815 36.3898 24.9884 35.5828 25.6801C34.799 26.3718 33.8652 26.9135 32.7817 27.3055C31.6981 27.6744 30.5107 27.8588 29.2196 27.8588ZM25.1043 14.8903C25.0138 15.1294 24.9388 15.383 24.8791 15.6511H32.7158C32.6859 15.3607 32.6272 15.0841 32.5396 14.8212C32.286 14.0373 31.8364 13.4263 31.1909 12.9883C30.5684 12.5272 29.796 12.2966 28.8738 12.2966C27.9747 12.2966 27.2023 12.5156 26.5568 12.9537C25.9112 13.3917 25.4271 14.0373 25.1043 14.8903ZM48.4589 35.052C47.0065 35.052 45.6577 34.8099 44.4128 34.3258C43.1678 33.8416 42.0957 33.1615 41.1966 32.2854C40.3205 31.4323 39.6865 30.4179 39.2945 29.2421L44.1015 27.5476C44.3551 28.4237 44.8739 29.1153 45.6577 29.6225C46.4416 30.1297 47.3753 30.3833 48.4589 30.3833C49.312 30.3833 50.0497 30.222 50.6722 29.8992C51.2947 29.5995 51.7673 29.1499 52.0901 28.5505C52.4359 27.951 52.6088 27.2478 52.6088 26.4409V24.6532C52.1674 25.0965 51.6717 25.4618 51.1218 25.7493C50.1074 26.2565 48.92 26.5101 47.5598 26.5101C45.8076 26.5101 44.2398 26.1181 42.8565 25.3343C41.4732 24.5273 40.3897 23.4322 39.6058 22.0489C38.8219 20.6426 38.43 19.0518 38.43 17.2765C38.43 15.5013 38.8219 13.9335 39.6058 12.5733C40.3897 11.19 41.4617 10.1064 42.822 9.32252C44.1822 8.53864 45.7269 8.14671 47.456 8.14671C48.8163 8.14671 50.0036 8.42337 51.018 8.97669C51.7394 9.35374 52.3849 9.87649 52.9547 10.545V8.5617H57.7962V26.4409C57.7962 28.1009 57.3928 29.5764 56.5858 30.8675C55.7789 32.1816 54.6723 33.2076 53.2659 33.9453C51.8826 34.6831 50.2803 35.052 48.4589 35.052ZM48.286 21.8068C49.1621 21.8068 49.9229 21.6224 50.5685 21.2535C51.214 20.8846 51.7097 20.3659 52.0555 19.6973C52.4244 19.0287 52.6088 18.2448 52.6088 17.3457C52.6088 16.4465 52.4244 15.6627 52.0555 14.9941C51.6866 14.3024 51.1794 13.7721 50.5339 13.4033C49.8883 13.0113 49.1391 12.8154 48.286 12.8154C47.4099 12.8154 46.6261 13.0113 45.9344 13.4033C45.2658 13.7721 44.7355 14.3024 44.3436 14.9941C43.9747 15.6627 43.7903 16.4465 43.7903 17.3457C43.7903 18.2218 43.9747 18.9941 44.3436 19.6627C44.7355 20.3313 45.2658 20.8616 45.9344 21.2535C46.6261 21.6224 47.4099 21.8068 48.286 21.8068ZM59.5405 8.5617H64.3821V10.8427C64.7363 10.1526 65.232 9.59972 65.8691 9.18419C66.9297 8.49253 68.1977 8.14671 69.6732 8.14671C71.241 8.14671 72.6127 8.55017 73.7885 9.3571C74.4879 9.81435 75.0342 10.3657 75.4276 11.0113C75.9275 10.2808 76.5224 9.69484 77.2122 9.25335C78.365 8.51559 79.7137 8.14671 81.2584 8.14671C82.6186 8.14671 83.8175 8.44642 84.855 9.04586C85.9155 9.64529 86.7455 10.4868 87.3449 11.5704C87.9444 12.6309 88.2441 13.8759 88.2441 15.3053V27.4438H83.0567V16.412C83.0567 15.6742 82.9184 15.0402 82.6417 14.5099C82.3881 13.9796 82.0192 13.5647 81.535 13.2649C81.0509 12.9652 80.463 12.8154 79.7713 12.8154C79.1027 12.8154 78.5148 12.9652 78.0076 13.2649C77.5235 13.5647 77.1431 13.9796 76.8664 14.5099C76.6128 15.0402 76.486 15.6742 76.486 16.412V27.4438H71.2986V16.412C71.2986 15.6742 71.1603 15.0402 70.8836 14.5099C70.63 13.9796 70.2611 13.5647 69.777 13.2649C69.2928 12.9652 68.7049 12.8154 68.0132 12.8154C67.3446 12.8154 66.7567 12.9652 66.2495 13.2649C65.7654 13.5647 65.385 13.9796 65.1083 14.5099C64.8547 15.0402 64.7279 15.6742 64.7279 16.412V27.4438H59.5405V8.5617ZM98.678 27.8588C96.6722 27.8588 94.9316 27.4208 93.4561 26.5447C91.9805 25.6455 90.8393 24.4467 90.0324 22.9481C89.2255 21.4495 88.822 19.7895 88.822 17.9682C88.822 16.0777 89.237 14.3946 90.067 12.9191C90.92 11.4436 92.0612 10.2793 93.4906 9.42626C94.9201 8.57323 96.5339 8.14671 98.3322 8.14671C99.8308 8.14671 101.156 8.38879 102.309 8.87294C103.462 9.33404 104.43 9.99111 105.214 10.8442C106.021 11.6972 106.632 12.6886 107.047 13.8183C107.462 14.9249 107.67 16.1353 107.67 17.4494C107.67 17.8183 107.646 18.1872 107.6 18.5561C107.577 18.9019 107.52 19.2016 107.427 19.4552H94.2025C94.2644 19.9385 94.3845 20.3881 94.5627 20.8039C94.9085 21.6109 95.4388 22.2449 96.1535 22.706C96.8682 23.144 97.7328 23.3631 98.7472 23.3631C99.6694 23.3631 100.453 23.1786 101.099 22.8097C101.767 22.4409 102.286 21.9336 102.655 21.2881L106.805 23.2593C106.436 24.1815 105.848 24.9884 105.041 25.6801C104.257 26.3718 103.324 26.9135 102.24 27.3055C101.156 27.6744 99.9691 27.8588 98.678 27.8588ZM94.5627 14.8903C94.4722 15.1294 94.3971 15.383 94.3375 15.6511H102.174C102.144 15.3607 102.086 15.0841 101.998 14.8212C101.744 14.0373 101.295 13.4263 100.649 12.9883C100.027 12.5272 99.2544 12.2966 98.3322 12.2966C97.4331 12.2966 96.6607 12.5156 96.0152 12.9537C95.3696 13.3917 94.8855 14.0373 94.5627 14.8903ZM108.649 8.5617H113.491V10.8584C113.927 10.034 114.538 9.40678 115.324 8.97669C116.315 8.42337 117.468 8.14671 118.782 8.14671C120.211 8.14671 121.456 8.44642 122.517 9.04586C123.6 9.64529 124.442 10.4868 125.041 11.5704C125.641 12.6309 125.94 13.8759 125.94 15.3053V27.4438H120.753V16.412C120.753 15.6742 120.603 15.0402 120.304 14.5099C120.027 13.9796 119.623 13.5647 119.093 13.2649C118.586 12.9652 117.986 12.8154 117.295 12.8154C116.626 12.8154 116.027 12.9652 115.497 13.2649C114.966 13.5647 114.551 13.9796 114.252 14.5099C113.975 15.0402 113.837 15.6742 113.837 16.412V27.4438H108.649V8.5617ZM136.372 27.6513C134.089 27.6513 132.314 27.0403 131.046 25.8184C129.801 24.5735 129.179 22.8443 129.179 20.631V13.0574H125.997V8.5617H126.17C127.138 8.5617 127.876 8.31962 128.383 7.83546C128.913 7.35131 129.179 6.62507 129.179 5.65676V4.27345H134.366V8.5617H138.793V13.0574H134.366V20.2852C134.366 20.9308 134.481 21.4725 134.712 21.9106C134.942 22.3256 135.3 22.6368 135.784 22.8443C136.268 23.0518 136.867 23.1556 137.582 23.1556C137.744 23.1556 137.928 23.144 138.135 23.121C138.343 23.0979 138.562 23.0749 138.793 23.0518V27.4438C138.447 27.4899 138.055 27.536 137.617 27.5821C137.179 27.6283 136.764 27.6513 136.372 27.6513ZM14.9383 27.8652C18.797 24.0066 18.797 17.7504 14.9383 13.8918L0.964844 27.8652C4.82352 31.7239 11.0797 31.7239 14.9383 27.8652Z" fill="#1E1E1E"/>
</svg>
